<svg xmlns="http://www.w3.org/2000/svg" width="165" height="15" viewBox="0 0 481 45">
<path class="st0" d="M35.7,44.1H25.1V25H10.6v19.1H0V0.9h10.6v15.8h14.5V0.9h10.6V44.1z M83,22.5c0,7-1.8,12.5-5.5,16.5
	c-3.7,4-8.7,6-15,6c-6.4,0-11.4-2-15-6.1c-3.6-4.1-5.5-9.5-5.5-16.4c0-6.9,1.8-12.4,5.5-16.5c3.6-4,8.7-6,15-6c6.4,0,11.4,2,15,6
	C81.2,10,83,15.5,83,22.5z M72.1,22.5c0-2.6-0.3-4.8-0.8-6.6c-0.5-1.8-1.2-3.3-2.1-4.5c-0.9-1.2-1.9-2-3.1-2.5
	c-1.1-0.5-2.3-0.8-3.6-0.8c-1.3,0-2.5,0.2-3.6,0.7c-1.1,0.5-2.1,1.3-3.1,2.5c-0.9,1.1-1.6,2.6-2.1,4.5c-0.5,1.9-0.8,4.1-0.8,6.6
	c0,2.7,0.3,4.9,0.8,6.6s1.2,3.2,2.1,4.4c0.9,1.2,1.9,2.1,3.1,2.6c1.2,0.5,2.3,0.8,3.6,0.8c1.3,0,2.5-0.3,3.6-0.8
	c1.2-0.6,2.2-1.4,3-2.6c0.9-1.3,1.6-2.7,2.1-4.4C71.8,27.4,72.1,25.2,72.1,22.5z M117.6,44.1H89.3V0.9h10.6v35h17.6V44.1z
	 M161.2,22.5c0,7-1.8,12.5-5.5,16.5c-3.7,4-8.7,6-15,6c-6.4,0-11.4-2-15-6.1c-3.6-4.1-5.5-9.5-5.5-16.4c0-6.9,1.8-12.4,5.5-16.5
	c3.6-4,8.6-6,15-6c6.4,0,11.4,2,15,6C159.3,10,161.2,15.5,161.2,22.5z M150.2,22.5c0-2.6-0.3-4.8-0.8-6.6c-0.5-1.8-1.2-3.3-2.1-4.5
	c-0.9-1.2-1.9-2-3.1-2.5c-1.1-0.5-2.3-0.8-3.6-0.8c-1.3,0-2.5,0.2-3.6,0.7c-1.1,0.5-2.1,1.3-3.1,2.5c-0.9,1.1-1.6,2.6-2.1,4.5
	c-0.5,1.9-0.8,4.1-0.8,6.6c0,2.7,0.3,4.9,0.8,6.6c0.5,1.8,1.2,3.2,2.1,4.4c0.9,1.2,1.9,2.1,3.1,2.6c1.2,0.5,2.3,0.8,3.6,0.8
	c1.3,0,2.5-0.3,3.6-0.8c1.2-0.6,2.2-1.4,3-2.6c0.9-1.3,1.6-2.7,2.1-4.4C149.9,27.4,150.2,25.2,150.2,22.5z M205.3,22.5
	c0,4-0.9,7.6-2.6,10.8c-1.7,3.2-3.9,5.6-6.5,7.3c-2.2,1.5-4.6,2.4-7.2,2.8c-2.6,0.4-5.3,0.6-8.3,0.6h-13.2V0.9h13.1
	c3,0,5.8,0.2,8.4,0.6c2.6,0.4,5,1.3,7.3,2.8c2.8,1.8,5,4.3,6.6,7.4C204.4,14.7,205.3,18.4,205.3,22.5z M194.3,22.5
	c0-2.8-0.5-5.3-1.4-7.3c-1-2-2.4-3.6-4.4-4.7c-1.4-0.8-3-1.3-4.5-1.3C182.4,9,180.5,9,178.3,9h-0.2v27h0.2c2.4,0,4.4,0,6-0.1
	c1.6-0.1,3.2-0.6,4.7-1.6c1.7-1.1,3.1-2.7,4-4.6C193.9,27.7,194.3,25.3,194.3,22.5z M232.6,44.1h-22.8v-7.5h6.1V8.4h-6.1V0.9h22.8
	v7.5h-6.1v28.1h6.1V44.1z M267.9,44.1h-28.3V0.9h10.6v35h17.6V44.1z M309.3,44.1H299L282.7,14v30.1H273V0.9h13l13.5,24.7V0.9h9.7
	V44.1z M338.9,44.1h-22.8v-7.5h6.1V8.4h-6.1V0.9h22.8v7.5h-6.1v28.1h6.1V44.1z M383.1,44.1h-12.8l-11.5-17.6l-2.1,3v14.6H346V0.9
	h10.6v19.2l13.5-19.2h12.3l-15.1,20L383.1,44.1z" style="fill:#329FDC" />
<path class="st1" d="M395.7,44.1h-10V32.7h10V44.1z M443.1,44.1h-12.9l-11.8-15.8h-3.8v15.8h-10.5V0.9h17c2.3,0,4.4,0.1,6.1,0.4
	c1.7,0.3,3.3,0.9,4.8,1.9c1.5,1,2.7,2.2,3.6,3.8c0.9,1.5,1.3,3.4,1.3,5.8c0,3.3-0.7,6-2.2,8.1c-1.5,2.1-3.4,3.7-5.8,4.9L443.1,44.1z
	 M426.1,14.1c0-1.1-0.2-2-0.6-2.8c-0.4-0.8-1.1-1.4-2-1.8C422.8,9.2,422,9,421.2,9c-0.8-0.1-1.8-0.1-3-0.1h-3.5v11.6h3
	c1.5,0,2.7-0.1,3.8-0.3c1-0.2,1.9-0.6,2.6-1.2c0.7-0.5,1.2-1.2,1.5-1.9C425.9,16.3,426.1,15.3,426.1,14.1z M463.3,45
	c-5.7,0-10-1.4-13.1-4.2c-3.1-2.8-4.6-6.9-4.6-12.3V0.9h10.6v27c0,3,0.6,5.2,1.7,6.7c1.1,1.5,2.9,2.2,5.4,2.2c2.4,0,4.2-0.7,5.4-2.1
	c1.1-1.4,1.7-3.7,1.7-6.8v-27H481v27.6c0,5.3-1.5,9.4-4.5,12.3C473.6,43.6,469.2,45,463.3,45z" style="fill:#F0B004" />
</svg>
